<svg id="visual" viewBox="0 0 900 600" xmlns="http://www.w3.org/2000/svg" xmlns:xlink="http://www.w3.org/1999/xlink" version="1.1"><path d="M0 13L13.7 13C27.3 13 54.7 13 82 18C109.3 23 136.7 33 163.8 34C191 35 218 27 245.2 23C272.3 19 299.7 19 327 21C354.3 23 381.7 27 409 31C436.3 35 463.7 39 491 36C518.3 33 545.7 23 573 22C600.3 21 627.7 29 654.8 30C682 31 709 25 736.2 23C763.3 21 790.7 23 818 23C845.3 23 872.7 21 886.3 20L900 19L900 0L886.3 0C872.7 0 845.3 0 818 0C790.7 0 763.3 0 736.2 0C709 0 682 0 654.8 0C627.7 0 600.3 0 573 0C545.7 0 518.3 0 491 0C463.7 0 436.3 0 409 0C381.7 0 354.3 0 327 0C299.7 0 272.3 0 245.2 0C218 0 191 0 163.8 0C136.7 0 109.3 0 82 0C54.7 0 27.3 0 13.7 0L0 0Z" fill="#2196f3"></path><path d="M0 25L13.7 27C27.3 29 54.7 33 82 38C109.3 43 136.7 49 163.8 48C191 47 218 39 245.2 38C272.3 37 299.7 43 327 45C354.3 47 381.7 45 409 49C436.3 53 463.7 63 491 63C518.3 63 545.7 53 573 51C600.3 49 627.7 55 654.8 54C682 53 709 45 736.2 44C763.3 43 790.7 49 818 51C845.3 53 872.7 51 886.3 50L900 49L900 17L886.3 18C872.7 19 845.3 21 818 21C790.7 21 763.3 19 736.2 21C709 23 682 29 654.8 28C627.7 27 600.3 19 573 20C545.7 21 518.3 31 491 34C463.7 37 436.3 33 409 29C381.7 25 354.3 21 327 19C299.7 17 272.3 17 245.2 21C218 25 191 33 163.8 32C136.7 31 109.3 21 82 16C54.7 11 27.3 11 13.7 11L0 11Z" fill="#50a7f6"></path><path d="M0 55L13.7 55C27.3 55 54.7 55 82 57C109.3 59 136.7 63 163.8 61C191 59 218 51 245.2 53C272.3 55 299.7 67 327 69C354.3 71 381.7 63 409 65C436.3 67 463.7 79 491 80C518.3 81 545.7 71 573 70C600.3 69 627.7 77 654.8 78C682 79 709 73 736.2 73C763.3 73 790.7 79 818 79C845.3 79 872.7 73 886.3 70L900 67L900 47L886.3 48C872.7 49 845.3 51 818 49C790.7 47 763.3 41 736.2 42C709 43 682 51 654.8 52C627.7 53 600.3 47 573 49C545.7 51 518.3 61 491 61C463.7 61 436.3 51 409 47C381.7 43 354.3 45 327 43C299.7 41 272.3 35 245.2 36C218 37 191 45 163.8 46C136.7 47 109.3 41 82 36C54.7 31 27.3 27 13.7 25L0 23Z" fill="#72b8f8"></path><path d="M0 193L13.7 189C27.3 185 54.7 177 82 182C109.3 187 136.7 205 163.8 208C191 211 218 199 245.2 196C272.3 193 299.7 199 327 203C354.3 207 381.7 209 409 216C436.3 223 463.7 235 491 238C518.3 241 545.7 235 573 231C600.3 227 627.7 225 654.8 222C682 219 709 215 736.2 219C763.3 223 790.7 235 818 241C845.3 247 872.7 247 886.3 247L900 247L900 65L886.3 68C872.7 71 845.3 77 818 77C790.7 77 763.3 71 736.2 71C709 71 682 77 654.8 76C627.7 75 600.3 67 573 68C545.7 69 518.3 79 491 78C463.7 77 436.3 65 409 63C381.7 61 354.3 69 327 67C299.7 65 272.3 53 245.2 51C218 49 191 57 163.8 59C136.7 61 109.3 57 82 55C54.7 53 27.3 53 13.7 53L0 53Z" fill="#91c8f9"></path><path d="M0 211L13.7 210C27.3 209 54.7 207 82 216C109.3 225 136.7 245 163.8 247C191 249 218 233 245.2 226C272.3 219 299.7 221 327 227C354.3 233 381.7 243 409 253C436.3 263 463.7 273 491 273C518.3 273 545.7 263 573 257C600.3 251 627.7 249 654.8 249C682 249 709 251 736.2 258C763.3 265 790.7 277 818 282C845.3 287 872.7 285 886.3 284L900 283L900 245L886.3 245C872.7 245 845.3 245 818 239C790.7 233 763.3 221 736.2 217C709 213 682 217 654.8 220C627.7 223 600.3 225 573 229C545.7 233 518.3 239 491 236C463.7 233 436.3 221 409 214C381.7 207 354.3 205 327 201C299.7 197 272.3 191 245.2 194C218 197 191 209 163.8 206C136.7 203 109.3 185 82 180C54.7 175 27.3 183 13.7 187L0 191Z" fill="#afd8fa"></path><path d="M0 301L13.7 296C27.3 291 54.7 281 82 291C109.3 301 136.7 331 163.8 338C191 345 218 329 245.2 314C272.3 299 299.7 285 327 284C354.3 283 381.7 295 409 306C436.3 317 463.7 327 491 327C518.3 327 545.7 317 573 314C600.3 311 627.7 315 654.8 316C682 317 709 315 736.2 316C763.3 317 790.7 321 818 324C845.3 327 872.7 329 886.3 330L900 331L900 281L886.3 282C872.7 283 845.3 285 818 280C790.7 275 763.3 263 736.2 256C709 249 682 247 654.8 247C627.7 247 600.3 249 573 255C545.7 261 518.3 271 491 271C463.7 271 436.3 261 409 251C381.7 241 354.3 231 327 225C299.7 219 272.3 217 245.2 224C218 231 191 247 163.8 245C136.7 243 109.3 223 82 214C54.7 205 27.3 207 13.7 208L0 209Z" fill="#bbdefb"></path><path d="M0 379L13.7 375C27.3 371 54.7 363 82 370C109.3 377 136.7 399 163.8 402C191 405 218 389 245.2 373C272.3 357 299.7 341 327 339C354.3 337 381.7 349 409 357C436.3 365 463.7 369 491 367C518.3 365 545.7 357 573 354C600.3 351 627.7 353 654.8 354C682 355 709 355 736.2 364C763.3 373 790.7 391 818 392C845.3 393 872.7 377 886.3 369L900 361L900 329L886.3 328C872.7 327 845.3 325 818 322C790.7 319 763.3 315 736.2 314C709 313 682 315 654.8 314C627.7 313 600.3 309 573 312C545.7 315 518.3 325 491 325C463.7 325 436.3 315 409 304C381.7 293 354.3 281 327 282C299.7 283 272.3 297 245.2 312C218 327 191 343 163.8 336C136.7 329 109.3 299 82 289C54.7 279 27.3 289 13.7 294L0 299Z" fill="#bbdefb"></path><path d="M0 433L13.7 440C27.3 447 54.7 461 82 470C109.3 479 136.7 483 163.8 476C191 469 218 451 245.2 444C272.3 437 299.7 441 327 448C354.3 455 381.7 465 409 477C436.3 489 463.7 503 491 503C518.3 503 545.7 489 573 476C600.3 463 627.7 451 654.8 442C682 433 709 427 736.2 436C763.3 445 790.7 469 818 477C845.3 485 872.7 477 886.3 473L900 469L900 359L886.3 367C872.7 375 845.3 391 818 390C790.7 389 763.3 371 736.2 362C709 353 682 353 654.8 352C627.7 351 600.3 349 573 352C545.7 355 518.3 363 491 365C463.7 367 436.3 363 409 355C381.7 347 354.3 335 327 337C299.7 339 272.3 355 245.2 371C218 387 191 403 163.8 400C136.7 397 109.3 375 82 368C54.7 361 27.3 369 13.7 373L0 377Z" fill="#afd8fa"></path><path d="M0 469L13.7 475C27.3 481 54.7 493 82 499C109.3 505 136.7 505 163.8 501C191 497 218 489 245.2 484C272.3 479 299.7 477 327 481C354.3 485 381.7 495 409 505C436.3 515 463.7 525 491 525C518.3 525 545.7 515 573 509C600.3 503 627.7 501 654.8 496C682 491 709 483 736.2 489C763.3 495 790.7 515 818 521C845.3 527 872.7 519 886.3 515L900 511L900 467L886.3 471C872.7 475 845.3 483 818 475C790.7 467 763.3 443 736.2 434C709 425 682 431 654.8 440C627.7 449 600.3 461 573 474C545.7 487 518.3 501 491 501C463.7 501 436.3 487 409 475C381.7 463 354.3 453 327 446C299.7 439 272.3 435 245.2 442C218 449 191 467 163.8 474C136.7 481 109.3 477 82 468C54.7 459 27.3 445 13.7 438L0 431Z" fill="#91c8f9"></path><path d="M0 487L13.7 495C27.3 503 54.7 519 82 524C109.3 529 136.7 523 163.8 517C191 511 218 505 245.2 502C272.3 499 299.7 499 327 506C354.3 513 381.7 527 409 537C436.3 547 463.7 553 491 552C518.3 551 545.7 543 573 535C600.3 527 627.7 519 654.8 515C682 511 709 511 736.2 517C763.3 523 790.7 535 818 539C845.3 543 872.7 539 886.3 537L900 535L900 509L886.3 513C872.7 517 845.3 525 818 519C790.7 513 763.3 493 736.2 487C709 481 682 489 654.8 494C627.7 499 600.3 501 573 507C545.7 513 518.3 523 491 523C463.7 523 436.3 513 409 503C381.7 493 354.3 483 327 479C299.7 475 272.3 477 245.2 482C218 487 191 495 163.8 499C136.7 503 109.3 503 82 497C54.7 491 27.3 479 13.7 473L0 467Z" fill="#72b8f8"></path><path d="M0 529L13.7 537C27.3 545 54.7 561 82 566C109.3 571 136.7 565 163.8 559C191 553 218 547 245.2 544C272.3 541 299.7 541 327 545C354.3 549 381.7 557 409 563C436.3 569 463.7 573 491 575C518.3 577 545.7 577 573 571C600.3 565 627.7 553 654.8 548C682 543 709 545 736.2 548C763.3 551 790.7 555 818 559C845.3 563 872.7 567 886.3 569L900 571L900 533L886.3 535C872.7 537 845.3 541 818 537C790.7 533 763.3 521 736.2 515C709 509 682 509 654.8 513C627.7 517 600.3 525 573 533C545.7 541 518.3 549 491 550C463.7 551 436.3 545 409 535C381.7 525 354.3 511 327 504C299.7 497 272.3 497 245.2 500C218 503 191 509 163.8 515C136.7 521 109.3 527 82 522C54.7 517 27.3 501 13.7 493L0 485Z" fill="#50a7f6"></path><path d="M0 601L13.7 601C27.3 601 54.7 601 82 601C109.3 601 136.7 601 163.8 601C191 601 218 601 245.2 601C272.3 601 299.7 601 327 601C354.3 601 381.7 601 409 601C436.3 601 463.7 601 491 601C518.3 601 545.7 601 573 601C600.3 601 627.7 601 654.8 601C682 601 709 601 736.2 601C763.3 601 790.7 601 818 601C845.3 601 872.7 601 886.3 601L900 601L900 569L886.3 567C872.7 565 845.3 561 818 557C790.7 553 763.3 549 736.2 546C709 543 682 541 654.8 546C627.7 551 600.3 563 573 569C545.7 575 518.3 575 491 573C463.7 571 436.3 567 409 561C381.7 555 354.3 547 327 543C299.7 539 272.3 539 245.2 542C218 545 191 551 163.8 557C136.7 563 109.3 569 82 564C54.7 559 27.3 543 13.7 535L0 527Z" fill="#2196f3"></path></svg>